<svg width="235" height="40" viewBox="0 0 235 40" fill="none" xmlns="http://www.w3.org/2000/svg">
<path d="M27.6731 35.0535C26.1235 36.6934 24.2185 37.9323 21.958 38.7701C19.7157 39.59 17.2546 40 14.5748 40C9.99912 40 6.44428 38.6185 3.91032 35.8556C1.37636 33.0749 0.0729198 29.0374 0 23.7433V16.738C0 11.3725 1.19406 7.24599 3.58218 4.35829C5.98854 1.45276 9.48868 0 14.0826 0C18.4031 0 21.6572 1.04278 23.8448 3.12834C26.0506 5.2139 27.3267 8.48485 27.6731 12.9412H19.8524C19.6336 10.4635 19.105 8.77897 18.2664 7.8877C17.4278 6.97861 16.1153 6.52406 14.3287 6.52406C12.1594 6.52406 10.5825 7.29947 9.59806 8.85027C8.61365 10.4011 8.10321 12.8699 8.06675 16.2567V23.3155C8.06675 26.8627 8.60453 29.4474 9.6801 31.0695C10.7739 32.6738 12.5604 33.4759 15.0397 33.4759C16.6257 33.4759 17.9109 33.164 18.8953 32.5401L19.6063 32.0588V24.9198H13.9733V18.984H27.6731V35.0535Z" fill="white"/>
<path d="M39.7201 32.9412H53.8301V39.4652H31.6807V0.534759H39.7201V32.9412Z" fill="white"/>
<path d="M76.3503 31.4973H65.385L63.2521 39.4652H54.7478L67.1897 0.534759H74.5455L87.0695 39.4652H78.4832L76.3503 31.4973ZM67.135 24.9465H74.5729L70.854 11.0695L67.135 24.9465Z" fill="white"/>
<path d="M105.953 29.2513C105.953 27.6649 105.534 26.4706 104.695 25.6684C103.875 24.8485 102.371 24.0018 100.183 23.1283C96.1907 21.6488 93.3194 19.9198 91.5694 17.9412C89.8193 15.9447 88.9443 13.5918 88.9443 10.8824C88.9443 7.6025 90.1292 4.97326 92.4991 2.99465C94.8872 0.998217 97.9134 0 101.578 0C104.02 0 106.199 0.508021 108.113 1.52406C110.027 2.52228 111.495 3.93939 112.516 5.7754C113.555 7.61141 114.074 9.69697 114.074 12.0321H106.062C106.062 10.2139 105.661 8.83244 104.859 7.8877C104.075 6.92513 102.936 6.44385 101.441 6.44385C100.037 6.44385 98.9434 6.85383 98.1595 7.6738C97.3756 8.47594 96.9837 9.56328 96.9837 10.9358C96.9837 12.0053 97.4212 12.9768 98.2962 13.8503C99.1713 14.7059 100.721 15.5971 102.945 16.5241C106.828 17.8966 109.644 19.5811 111.394 21.5775C113.163 23.574 114.047 26.1141 114.047 29.1979C114.047 32.5847 112.944 35.2317 110.738 37.139C108.532 39.0463 105.534 40 101.742 40C99.1713 40 96.8287 39.4831 94.714 38.4492C92.5994 37.4153 90.9404 35.9358 89.7373 34.0107C88.5523 32.0856 87.9598 29.8128 87.9598 27.1925H96.0266C96.0266 29.4385 96.4732 31.0695 97.3665 32.0856C98.2598 33.1016 99.7182 33.6096 101.742 33.6096C104.549 33.6096 105.953 32.1569 105.953 29.2513Z" fill="white"/>
<path d="M134.516 29.2513C134.516 27.6649 134.097 26.4706 133.258 25.6684C132.438 24.8485 130.934 24.0018 128.746 23.1283C124.754 21.6488 121.883 19.9198 120.133 17.9412C118.383 15.9447 117.508 13.5918 117.508 10.8824C117.508 7.6025 118.693 4.97326 121.062 2.99465C123.451 0.998217 126.477 0 130.141 0C132.584 0 134.762 0.508021 136.676 1.52406C138.591 2.52228 140.058 3.93939 141.079 5.7754C142.118 7.61141 142.638 9.69697 142.638 12.0321H134.626C134.626 10.2139 134.225 8.83244 133.422 7.8877C132.639 6.92513 131.499 6.44385 130.004 6.44385C128.601 6.44385 127.507 6.85383 126.723 7.6738C125.939 8.47594 125.547 9.56328 125.547 10.9358C125.547 12.0053 125.985 12.9768 126.86 13.8503C127.735 14.7059 129.284 15.5971 131.508 16.5241C135.391 17.8966 138.208 19.5811 139.958 21.5775C141.726 23.574 142.61 26.1141 142.61 29.1979C142.61 32.5847 141.507 35.2317 139.302 37.139C137.096 39.0463 134.097 40 130.305 40C127.735 40 125.392 39.4831 123.277 38.4492C121.163 37.4153 119.504 35.9358 118.301 34.0107C117.116 32.0856 116.523 29.8128 116.523 27.1925H124.59C124.59 29.4385 125.037 31.0695 125.93 32.0856C126.823 33.1016 128.282 33.6096 130.305 33.6096C133.112 33.6096 134.516 32.1569 134.516 29.2513Z" fill="white"/>
<path d="M173.252 26.4973C173.051 30.9358 171.775 34.2959 169.424 36.5775C167.072 38.8592 163.754 40 159.47 40C154.967 40 151.513 38.5562 149.106 35.6684C146.718 32.7629 145.524 28.6275 145.524 23.262V16.7112C145.524 11.3636 146.764 7.24599 149.243 4.35829C151.722 1.45276 155.168 0 159.579 0C163.918 0 167.209 1.18538 169.451 3.55615C171.711 5.92692 172.997 9.33155 173.307 13.7701H165.24C165.167 11.025 164.729 9.13547 163.927 8.1016C163.143 7.04991 161.694 6.52406 159.579 6.52406C157.428 6.52406 155.906 7.26381 155.013 8.74332C154.12 10.205 153.646 12.6203 153.591 15.9893V23.3422C153.591 27.2103 154.028 29.8663 154.903 31.3102C155.797 32.754 157.319 33.4759 159.47 33.4759C161.585 33.4759 163.043 32.9768 163.845 31.9786C164.647 30.9626 165.103 29.1355 165.212 26.4973H173.252Z" fill="white"/>
<path d="M195.526 31.4973H184.561L182.428 39.4652H173.923L186.365 0.534759H193.721L206.245 39.4652H197.659L195.526 31.4973ZM186.311 24.9465H193.749L190.03 11.0695L186.311 24.9465Z" fill="white"/>
<path d="M220.37 25.2406H216.378V39.4652H208.339V0.534759H221.163C225.192 0.534759 228.301 1.55971 230.488 3.60963C232.694 5.64171 233.797 8.53832 233.797 12.2995C233.797 17.4688 231.874 21.0873 228.027 23.1551L235 39.0909V39.4652H226.359L220.37 25.2406ZM216.378 18.6898H220.945C222.549 18.6898 223.752 18.1729 224.554 17.139C225.356 16.0873 225.757 14.6881 225.757 12.9412C225.757 9.03743 224.199 7.08556 221.081 7.08556H216.378V18.6898Z" fill="white"/>
</svg>
