<svg aria-hidden="true" style="position: absolute; width: 0; height: 0; overflow: hidden;" version="1.1" xmlns="http://www.w3.org/2000/svg" xmlns:xlink="http://www.w3.org/1999/xlink">
<defs>
<symbol id="arrow-down" viewBox="0 0 32 32">
<path stroke-linejoin="miter" stroke-linecap="square" stroke-miterlimit="4" stroke-width="4" d="M25.334 12l-9.333 8-9.333-8"></path>
</symbol>
<symbol id="arrow-left" viewBox="0 0 32 32">
<path fill="none" stroke-linejoin="miter" stroke-linecap="square" stroke-miterlimit="4" stroke-width="3" d="M20 25.333l-8-9.333 8-9.333"></path>
</symbol>
<symbol id="arrow-right" viewBox="0 0 32 32">
<path fill="none" stroke-linejoin="miter" stroke-linecap="square" stroke-miterlimit="4" stroke-width="3" d="M12 6.667l8 9.333-8 9.333"></path>
</symbol>
<symbol id="arrow-up" viewBox="0 0 32 32">
<path fill="none" stroke-linejoin="miter" stroke-linecap="square" stroke-miterlimit="4" stroke-width="2" d="M6.667 20l9.333-8 9.333 8"></path>
</symbol>
<symbol id="cross-1" viewBox="0 0 32 32">
<path stroke-linejoin="miter" stroke-linecap="square" stroke-miterlimit="4" stroke-width="1.0435" d="M16.359 8.13v8.228M16.359 24.587v-8.228M16.359 16.358h8.229M16.359 16.358h-8.228"></path>
</symbol>
<symbol id="cross-2" viewBox="0 0 32 32">
<path fill="none"  stroke-linejoin="miter" stroke-linecap="square" stroke-miterlimit="4" stroke-width="1.5" d="M24.364 8.364l-8.364 8.364M7.636 25.092l8.364-8.364M16 16.728l8.364 8.364M16 16.728l-8.364-8.364"></path>
</symbol>
<symbol id="cross-3" viewBox="0 0 32 32">
<path fill="none" stroke="#5364ff" style="stroke: var(--color2, #5364ff)" stroke-linejoin="miter" stroke-linecap="square" stroke-miterlimit="4" stroke-width="4" d="M16.344 8.458v7.886M16.344 24.229v-7.886M16.344 16.343h7.886M16.344 16.343h-7.886"></path>
</symbol>
<symbol id="cross-4" viewBox="0 0 32 32">
<path fill="none" stroke="#fff" style="stroke: var(--color1, #fff)" stroke-linejoin="miter" stroke-linecap="square" stroke-miterlimit="4" stroke-width="6" d="M24.364 8.364l-8.364 8.364M7.636 25.092l8.364-8.364M16 16.728l8.364 8.364M16 16.728l-8.364-8.364"></path>
</symbol>
<symbol id="logo" viewBox="0 0 249 40">
<path d="M26.6141 1.19847C22.7624 -0.217287 18.7975 -0.25993 14.8066 0.516178C10.8157 1.29229 7.74648 3.4074 5.56409 6.77622C3.90338 9.34335 2.92087 12.1834 2.33832 15.1343C1.85141 17.6417 1.48623 20.1747 1.19061 22.7078C0.860209 25.5649 0.894988 28.422 1.66013 31.2279C2.89479 35.7993 5.93796 38.4858 10.6071 39.5092C13.1112 40.0551 15.65 40.0465 18.1802 39.876C21.919 39.6286 25.3969 38.537 28.4835 36.3877C29.3095 35.8163 30.0225 35.2364 29.9095 34.1106C29.8834 33.8462 29.9964 33.5733 30.0312 33.3089C30.5703 29.2919 31.118 25.2749 31.6571 21.2579C31.8049 20.1577 31.9267 19.049 32.0745 17.8805H17.7716C17.4064 20.5671 17.0412 23.211 16.6673 25.9657H21.2842C21.2842 26.3239 21.3016 26.5286 21.2842 26.7248C21.1364 27.9444 20.9712 29.1554 20.8321 30.375C20.78 30.8185 20.5104 31.0232 20.1191 31.1597C18.3541 31.7567 16.563 32.0637 14.6936 31.7481C13.1981 31.4923 12.0939 30.7077 11.5635 29.3431C11.1983 28.4049 10.9635 27.3815 10.8853 26.3751C10.6418 23.3986 11.1461 20.4647 11.6157 17.5309C11.8939 15.7825 12.233 14.0341 12.9546 12.3966C13.259 11.7143 13.5981 11.032 14.0328 10.4265C15.4414 8.46489 17.5803 7.8423 20.3452 8.33696C21.6233 8.56724 22.5102 9.3604 22.7189 10.6226C22.9189 11.7911 22.9102 12.9851 22.971 14.1706C22.9971 14.6055 22.971 15.032 22.971 15.5266H32.3527C32.4136 15.3987 32.4918 15.3049 32.5005 15.2111C32.744 13.2495 33.0048 11.2964 32.7787 9.30923C32.3353 5.4031 30.3877 2.58864 26.5968 1.19847H26.6141Z" fill="white"/>
<path d="M241.374 24.6609C241.496 24.5926 241.618 24.5329 241.74 24.4732C244.505 23.1769 246.452 21.1129 247.504 18.307C248.739 15.0405 249.304 11.6632 248.817 8.18349C248.417 5.34344 246.93 3.25392 244.244 2.04285C242.418 1.21557 240.47 0.848836 238.479 0.82325C233.514 0.76355 228.55 0.772078 223.576 0.76355C223.307 0.76355 223.037 0.814722 222.681 0.840308C220.977 13.6418 219.272 26.4092 217.551 39.2875C220.829 39.279 223.968 39.3046 227.159 39.2705C227.758 34.8014 228.341 30.4604 228.932 26.0425C229.871 26.0766 230.723 25.889 231.584 26.1704C232.706 30.5456 233.819 34.8953 234.923 39.2108H245.27C243.879 34.3835 242.514 29.6331 241.148 24.8741C241.27 24.7462 241.314 24.6865 241.366 24.6523L241.374 24.6609ZM238.766 14.7761C238.383 16.5075 237.192 17.5991 235.384 17.7868C233.671 17.9659 231.932 17.9403 229.984 18.0085C230.419 14.8358 230.828 11.8849 231.254 8.84019C233.158 8.89137 234.958 8.66962 236.749 8.99371C238.105 9.24104 238.949 10.0854 239.001 11.4244C239.044 12.5331 239.001 13.6845 238.775 14.7676L238.766 14.7761Z" fill="white"/>
<path d="M119.371 32.6437C120.466 30.0766 120.744 27.3645 120.501 24.6268C120.266 22.0426 119.058 19.9445 116.762 18.5629C115.971 18.0853 115.119 17.6333 114.232 17.3859C112.467 16.8998 110.658 16.5672 108.876 16.1578C107.667 15.8764 106.441 15.6205 105.259 15.2452C104.416 14.9808 103.755 14.4094 103.477 13.5139C102.824 11.45 103.981 9.15576 106.068 8.482C107.276 8.08968 108.537 8.0641 109.772 8.31996C111.337 8.64404 112.25 9.6419 112.423 11.2026C112.502 11.9105 112.467 12.6269 112.476 13.3433C112.476 13.7357 112.476 14.128 112.476 14.5032H121.936C122.309 12.789 122.353 11.1174 122.231 9.45427C121.918 4.97672 119.536 2.00022 115.258 0.814731C111.111 -0.32811 106.937 -0.242823 102.816 0.908546C99.1813 1.92346 96.3381 3.98739 94.747 7.46709C93.7384 9.68454 93.4515 12.047 93.4515 14.4521C93.4515 18.1876 95.1904 20.8059 98.6857 22.2984C99.0683 22.4605 99.4596 22.5969 99.8508 22.7419C101.729 23.4072 103.694 23.646 105.642 23.953C106.841 24.1406 108.024 24.4135 109.111 24.985C109.911 25.4114 110.528 26.0084 110.667 26.921C110.954 28.7887 110.276 30.7845 108.076 31.4838C106.589 31.9614 105.068 32.0041 103.555 31.6288C102.303 31.3218 101.477 30.5286 101.199 29.2919C101.051 28.6693 101.025 28.0126 100.981 27.373C100.946 26.938 100.981 26.5031 100.981 26.0084H91.5473C91.4864 26.196 91.4082 26.3496 91.3995 26.5116C91.3038 27.9359 91.1473 29.3431 91.3125 30.7845C91.7734 34.7588 93.8514 37.4709 97.6684 38.8782C99.5378 39.569 101.485 39.8675 103.477 39.9272C106.268 40.0039 109.033 39.8845 111.719 39.0487C115.188 37.9741 117.927 36.0211 119.379 32.6352L119.371 32.6437Z" fill="white"/>
<path d="M146.515 0.7891C142.393 -0.319627 138.263 -0.217283 134.168 0.891444C131.646 1.57374 129.386 2.79334 127.743 4.84874C124.847 8.47343 124.282 12.6439 125.143 17.0362C125.499 18.8784 126.664 20.2942 128.264 21.3432C129.551 22.196 130.96 22.7589 132.455 23.1001C133.942 23.4327 135.455 23.663 136.95 23.9359C138.185 24.1576 139.402 24.422 140.515 25.019C141.289 25.4369 141.88 26.0254 141.985 26.8953C142.254 29.0957 141.515 31.0914 138.724 31.6714C137.628 31.9017 136.524 31.9273 135.411 31.7311C133.716 31.4411 132.707 30.5541 132.455 28.8911C132.316 27.9614 132.325 27.0147 132.273 25.9998H122.856C122.526 27.4582 122.534 28.8911 122.63 30.3153C122.9 34.5114 125.004 37.4112 129.047 38.8952C131.125 39.6542 133.281 39.9101 135.49 39.9442C138.22 39.9868 140.898 39.7736 143.497 38.9037C147.288 37.6244 149.966 35.2534 151.158 31.4326C151.723 29.633 151.879 27.7653 151.888 25.8804C151.914 21.9317 150.079 19.2025 146.375 17.6588C144.41 16.84 142.332 16.4477 140.237 16.1492C138.898 15.9531 137.559 15.7228 136.333 15.1258C135.655 14.8017 135.02 14.3667 134.855 13.6333C134.368 11.5182 134.872 9.18131 137.594 8.44784C138.602 8.17492 139.733 8.16639 140.785 8.26874C142.506 8.43078 143.445 9.38599 143.715 11.0917C143.845 11.919 143.793 12.7804 143.81 13.6333C143.81 13.8977 143.776 14.162 143.75 14.5032H153.279C153.583 12.7378 153.679 11.0235 153.549 9.28365C153.236 4.9852 150.758 1.94047 146.515 0.797628V0.7891Z" fill="white"/>
<path d="M88.7103 39.2619C87.2931 26.3666 85.8932 13.6162 84.4846 0.823242H71.3207C66.5038 13.6162 61.6956 26.3836 56.8613 39.2449H67.1559C68.0167 36.6607 68.8775 34.085 69.7209 31.5435H77.8244C78.0418 34.1533 78.2505 36.6863 78.4679 39.3046C81.9197 39.279 85.2672 39.3387 88.7016 39.2705L88.7103 39.2619ZM72.5554 23.2963C73.7727 19.484 75.0769 15.791 76.4768 12.1237C76.7376 15.8081 76.9984 19.4925 77.268 23.2963H72.5554Z" fill="white"/>
<path d="M198.127 0.806152C193.302 13.6418 188.485 26.3836 183.668 39.2363H193.954C194.815 36.6521 195.658 34.1021 196.501 31.5776H204.631C204.848 34.1788 205.057 36.7033 205.266 39.2278H215.5C214.091 26.3836 212.682 13.6077 211.283 0.806152H198.127ZM199.353 23.2024C200.605 19.4925 201.857 15.7995 203.101 12.1152C203.153 12.1152 203.214 12.1322 203.266 12.1407C203.527 15.8081 203.788 19.4754 204.049 23.1171C203.266 23.3901 200.623 23.4412 199.353 23.211V23.2024Z" fill="white"/>
<path d="M174.668 25.9571C174.303 27.0829 174.059 28.0807 173.668 29.0189C173.137 30.3152 172.181 31.2534 170.79 31.6457C169.816 31.9186 168.807 31.9357 167.799 31.7822C166.26 31.5434 165.26 30.6905 164.816 29.2748C164.573 28.5072 164.408 27.6799 164.373 26.8782C164.217 23.0744 164.886 19.3474 165.547 15.6204C165.834 13.9999 166.277 12.4306 167.095 10.9808C167.886 9.55648 169.042 8.55862 170.703 8.31982C171.59 8.19189 172.511 8.17483 173.398 8.29424C174.729 8.46481 175.589 9.24945 175.911 10.5543C176.172 11.6204 176.268 12.7036 176.137 13.7952C176.068 14.3581 176.059 14.921 176.024 15.518H185.554C185.806 13.4455 186.11 11.4498 185.91 9.38591C185.484 4.97659 183.006 1.9745 178.667 0.797539C175.259 -0.132085 171.807 -0.183257 168.347 0.464922C164.147 1.25809 160.973 3.50113 158.834 7.13434C157.756 8.97653 157 10.9467 156.435 12.9935C155.574 16.0894 155.148 19.2621 154.783 22.4518C154.478 25.1383 154.461 27.8163 154.974 30.4944C155.922 35.458 158.93 38.5113 163.921 39.5433C166.886 40.1488 169.868 40.1232 172.833 39.6371C175.928 39.1254 178.659 37.8546 180.702 35.4154C182.171 33.667 183.015 31.6287 183.545 29.4539C183.815 28.3366 184.049 27.2193 184.084 25.9571C180.867 25.9571 177.728 25.9486 174.668 25.9656V25.9571Z" fill="white"/>
<path d="M56.5846 39.1255C56.9237 36.5328 57.2628 33.9059 57.628 31.1341H43.7946C45.1336 20.9509 46.516 10.9297 47.8376 0.823242H38.2473C36.5344 13.6759 34.8389 26.4092 33.1348 39.1425C34.2564 39.3643 55.7412 39.3387 56.5846 39.1255Z" fill="white"/>
</symbol>
<symbol id="master" viewBox="0 0 51 32">
<path fill="#fff" style="fill: var(--color1, #fff)" d="M4.593 0h41.481c2.291 0 4.148 1.791 4.148 4v24c0 2.209-1.857 4-4.148 4h-41.481c-2.291 0-4.148-1.791-4.148-4v-24c0-2.209 1.857-4 4.148-4zM33.26 27.975c6.801-0.023 12.211-5.425 12.096-12.081-0.114-6.622-5.71-12.022-12.511-11.999-2.871 0.009-5.486 0.988-7.543 2.6l0.065 0.050-0.366 0.001c-2.106-1.58-4.739-2.53-7.592-2.52-6.801 0.022-12.211 5.425-12.096 12.081s5.71 12.022 12.511 11.999c2.871-0.010 5.486-0.988 7.543-2.6l-0.065-0.050 0.367-0.001c2.106 1.58 4.739 2.529 7.592 2.52z"></path>
</symbol>
<symbol id="menu" viewBox="0 0 32 32">
<path fill="none" stroke="#2a3489" style="stroke: var(--color3, #2a3489)" stroke-linejoin="miter" stroke-linecap="square" stroke-miterlimit="4" stroke-width="2" d="M24 10h-16"></path>
<path fill="none" stroke="#2a3489" style="stroke: var(--color3, #2a3489)" stroke-linejoin="miter" stroke-linecap="square" stroke-miterlimit="4" stroke-width="2" d="M24 16h-16"></path>
<path fill="none" stroke="#2a3489" style="stroke: var(--color3, #2a3489)" stroke-linejoin="miter" stroke-linecap="square" stroke-miterlimit="4" stroke-width="2" d="M24 22h-16"></path>
</symbol>
<symbol id="pay-1" viewBox="0 0 32 32">
<path fill="none" stroke-linejoin="miter" stroke-linecap="butt" stroke-miterlimit="4" stroke-width="1.3061" d="M26.449 6.857h3.265c0.361 0 0.653 0.292 0.653 0.653v20.245c0 0.361-0.292 0.653-0.653 0.653h-28.082c-0.361 0-0.653-0.292-0.653-0.653v-20.245c0-0.361 0.292-0.653 0.653-0.653h1.306M26.449 6.857v-5.041c0-0.425-0.399-0.737-0.811-0.634l-22.699 5.675M26.449 6.857h-23.51"></path>
</symbol>
<symbol id="pay-2" viewBox="0 0 32 32">
<path fill="none" stroke="#fff" style="stroke: var(--color1, #fff)" stroke-linejoin="miter" stroke-linecap="butt" stroke-miterlimit="4" stroke-width="1.3333" d="M8.417 1.333h15c2.071 0 3.75 1.679 3.75 3.75v22.5c0 2.071-1.679 3.75-3.75 3.75h-15c-2.071 0-3.75-1.679-3.75-3.75v-22.5c0-2.071 1.679-3.75 3.75-3.75z"></path>
<path fill="none" stroke="#fff" style="stroke: var(--color1, #fff)" stroke-linejoin="miter" stroke-linecap="round" stroke-miterlimit="4" stroke-width="1.3333" d="M9.333 9.333h13.167"></path>
<path fill="none" stroke="#fff" style="stroke: var(--color1, #fff)" stroke-linejoin="miter" stroke-linecap="round" stroke-miterlimit="4" stroke-width="1.3333" d="M9.333 14h13.167"></path>
<path fill="none" stroke="#fff" style="stroke: var(--color1, #fff)" stroke-linejoin="miter" stroke-linecap="round" stroke-miterlimit="4" stroke-width="1.3333" d="M9.333 18.667h13.167"></path>
<path fill="none" stroke="#fff" style="stroke: var(--color1, #fff)" stroke-linejoin="miter" stroke-linecap="round" stroke-miterlimit="4" stroke-width="1.3333" d="M9.333 23.333h6.583"></path>
</symbol>
<symbol id="truck-1" viewBox="0 0 32 32">
<path stroke-linejoin="miter" stroke-linecap="butt" stroke-miterlimit="4" stroke-width="1.3333" d="M3.171 23h-1.504c-0.368 0-0.667-0.298-0.667-0.667v-16.667c0-0.368 0.298-0.667 0.667-0.667h20.667c0.368 0 0.667 0.298 0.667 0.667v15.504M8.829 23h12.341M23 11h3.039c0.608 0 1.182 0.276 1.562 0.751l2.961 3.702c0.284 0.355 0.438 0.795 0.438 1.249v4.298c0 1.105-0.895 2-2 2h-2.171M9 24c0 1.657-1.343 3-3 3s-3-1.343-3-3c0-1.657 1.343-3 3-3s3 1.343 3 3zM27 24c0 1.657-1.343 3-3 3s-3-1.343-3-3c0-1.657 1.343-3 3-3s3 1.343 3 3z"></path>
</symbol>
<symbol id="truck-2" viewBox="0 0 32 32">
<path stroke-linejoin="miter" stroke-linecap="butt" stroke-miterlimit="4" stroke-width="1.3333" d="M15.519 1.492c0.192-0.1 0.421-0.1 0.613 0l2.469 1.279c0.065 0.034 0.135 0.056 0.207 0.067l2.749 0.417c0.214 0.032 0.399 0.167 0.496 0.36l1.246 2.486c0.033 0.065 0.076 0.125 0.128 0.176l1.979 1.953c0.154 0.152 0.225 0.37 0.19 0.583l-0.453 2.743c-0.012 0.072-0.012 0.145 0 0.217l0.453 2.743c0.035 0.214-0.035 0.431-0.19 0.583l-1.979 1.953c-0.052 0.051-0.095 0.111-0.128 0.176l-1.246 2.486c-0.097 0.194-0.282 0.328-0.496 0.36l-2.749 0.417c-0.072 0.011-0.142 0.034-0.207 0.067l-2.469 1.279c-0.192 0.1-0.421 0.1-0.613 0l-2.469-1.279c-0.065-0.034-0.135-0.056-0.207-0.067l-2.749-0.417c-0.214-0.032-0.399-0.167-0.496-0.36l-1.246-2.486c-0.033-0.065-0.076-0.125-0.128-0.176l-1.979-1.953c-0.154-0.152-0.225-0.37-0.189-0.583l0.453-2.743c0.012-0.072 0.012-0.145 0-0.217l-0.453-2.743c-0.035-0.214 0.035-0.431 0.189-0.583l1.979-1.953c0.052-0.051 0.095-0.111 0.128-0.176l1.246-2.486c0.097-0.194 0.282-0.328 0.496-0.36l2.749-0.417c0.072-0.011 0.142-0.034 0.207-0.067l2.469-1.279z"></path>
<path stroke-linejoin="miter" stroke-linecap="butt" stroke-miterlimit="4" stroke-width="1.3333" d="M9.705 23.54c-0.403-0.061-0.767 0.251-0.767 0.659v5.614c0 0.434 0.408 0.752 0.828 0.647l5.898-1.474c0.106-0.027 0.217-0.027 0.323 0l5.898 1.474c0.421 0.105 0.828-0.213 0.828-0.647v-5.614c0-0.408-0.363-0.72-0.767-0.659l-2.6 0.394c-0.072 0.011-0.142 0.034-0.207 0.067l-3.008 1.558c-0.192 0.1-0.421 0.1-0.613 0l-3.008-1.558c-0.065-0.034-0.135-0.056-0.207-0.067l-2.6-0.394z"></path>
</symbol>
<symbol id="truck-3" viewBox="0 0 32 32">
<path stroke-linejoin="round" stroke-linecap="round" stroke-miterlimit="4" stroke-width="1.3333" d="M15.067 5.282c-6.563 0.499-11.733 5.983-11.733 12.674 0 7.020 5.691 12.711 12.711 12.711s12.711-5.691 12.711-12.711c0-6.691-5.17-12.175-11.733-12.674M15.067 5.282c0.323-0.025 0.649-0.037 0.978-0.037s0.655 0.013 0.978 0.037M15.067 5.282v-3.948M15.067 1.333h1.956M15.067 1.333h1.956M15.067 1.333h-1.956M17.022 1.333v3.948M9.2 17.956h6.844l-0-6.649"></path>
</symbol>
<symbol id="visa" viewBox="0 0 51 32">
<path fill="#fff" style="fill: var(--color1, #fff)" d="M38.716 17.696c0.303-0.702 1.334-3.333 1.334-3.333 0 0.058 0.303-0.702 0.425-1.111l0.243 1.053c0 0 0.667 2.865 0.788 3.45h-2.79v-0.058z"></path>
<path fill="#fff" style="fill: var(--color1, #fff)" d="M4.148 0c-2.291 0-4.148 1.791-4.148 4v24c0 2.209 1.857 4 4.148 4h41.481c2.291 0 4.148-1.791 4.148-4v-24c0-2.209-1.857-4-4.148-4h-41.481zM33.743 18.047c0 2.456-2.305 4.093-5.883 4.093-1.516 0-2.972-0.292-3.76-0.643l0.485-2.69 0.425 0.175c1.092 0.468 1.819 0.643 3.154 0.643 0.97 0 2.001-0.351 2.001-1.17 0-0.526-0.425-0.877-1.759-1.462-1.273-0.585-2.972-1.521-2.972-3.216 0-2.339 2.365-3.918 5.701-3.918 1.274 0 2.365 0.234 3.032 0.526l-0.485 2.573-0.243-0.234c-0.606-0.234-1.395-0.468-2.547-0.468-1.274 0.058-1.88 0.585-1.88 1.053 0 0.526 0.728 0.936 1.88 1.462 1.941 0.877 2.85 1.871 2.85 3.275zM42.84 10.035h-2.608c-0.788 0-1.395 0.234-1.759 0.994l-4.973 10.936h3.517c0 0 0.606-1.462 0.728-1.813h4.306c0.121 0.409 0.424 1.754 0.424 1.754h3.154l-2.79-11.871zM4.209 9.918l-0.061 0.234c4.063 0.936 6.732 3.216 7.884 6.023l-1.152-5.263c-0.182-0.76-0.728-0.994-1.455-0.994h-5.216zM19.37 10.035l-5.276 11.871h-3.578l-3.032-9.942c2.183 1.345 4.003 3.45 4.67 4.912l0.364 1.228 3.275-8.129h3.578v0.058zM24.101 9.977h-3.335l-2.123 11.93h3.335l2.123-11.93z"></path>
</symbol>
<symbol id="info" viewBox="0 0 16 16">
<path d="M8 7V13" stroke="#1A1A1D" stroke-width="1.5" stroke-linecap="square"/>
<path d="M8 4V4.2" stroke="#1A1A1D" stroke-width="1.5" stroke-linecap="square"/>
</symbol>
</defs>
</svg>
